<?xml version="1.0" encoding="UTF-8" standalone="no"?>
<!-- Created with Inkscape (http://www.inkscape.org/) -->

<svg
   xmlns:dc="http://purl.org/dc/elements/1.1/"
   xmlns:cc="http://creativecommons.org/ns#"
   xmlns:rdf="http://www.w3.org/1999/02/22-rdf-syntax-ns#"
   xmlns:svg="http://www.w3.org/2000/svg"
   xmlns="http://www.w3.org/2000/svg"
   xmlns:sodipodi="http://sodipodi.sourceforge.net/DTD/sodipodi-0.dtd"
   xmlns:inkscape="http://www.inkscape.org/namespaces/inkscape"
   width="210mm"
   height="297mm"
   viewBox="0 0 210 297"
   version="1.1"
   id="svg8"
   inkscape:version="0.92.4 (5da689c313, 2019-01-14)"
   sodipodi:docname="drawingreserve.svg">
  <defs
     id="defs2" />
  <sodipodi:namedview
     id="base"
     pagecolor="#ffffff"
     bordercolor="#666666"
     borderopacity="1.0"
     inkscape:pageopacity="0.0"
     inkscape:pageshadow="2"
     inkscape:zoom="0.35"
     inkscape:cx="-114.28571"
     inkscape:cy="560"
     inkscape:document-units="mm"
     inkscape:current-layer="layer1"
     showgrid="false"
     inkscape:window-width="1280"
     inkscape:window-height="748"
     inkscape:window-x="-8"
     inkscape:window-y="-8"
     inkscape:window-maximized="1" />
  <metadata
     id="metadata5">
    <rdf:RDF>
      <cc:Work
         rdf:about="">
        <dc:format>image/svg+xml</dc:format>
        <dc:type
           rdf:resource="http://purl.org/dc/dcmitype/StillImage" />
        <dc:title></dc:title>
      </cc:Work>
    </rdf:RDF>
  </metadata>
  <g
     inkscape:label="Layer 1"
     inkscape:groupmode="layer"
     id="layer1">
    <g
       id="g24"
       transform="matrix(-0.26464226,0,0,0.26464226,148.62042,68.248941)"
       inkscape:export-xdpi="300"
       inkscape:export-ydpi="300">
      <g
         id="g22">
        <g
           id="g20">
          <path
             id="path10"
             d="m 153.073,295.946 c 23.389,-0.302 46.626,-6.219 67.197,-17.111 0.056,-0.029 0.168,-0.069 0.284,-0.015 10.555,4.986 30.904,13.002 48.606,10.662 4.383,-0.579 8.12,-3.493 9.752,-7.604 1.628,-4.1 0.911,-8.769 -1.872,-12.185 -3.965,-4.87 -9.773,-12.921 -14.922,-23.618 -0.035,-0.072 -0.005,-0.221 0.104,-0.346 23.605,-26.807 36.704,-61.252 36.884,-96.991 0.171,-34.139 -11.611,-67.534 -33.178,-94.031 -2.614,-3.212 -7.338,-3.697 -10.551,-1.083 -3.212,2.615 -3.697,7.339 -1.083,10.551 19.378,23.809 29.966,53.814 29.812,84.487 -0.162,32.115 -11.932,63.066 -33.142,87.153 -4.097,4.653 -5.024,11.232 -2.363,16.764 4.479,9.304 9.415,16.843 13.493,22.325 -13.415,-0.124 -28.675,-6.596 -35.133,-9.646 -4.335,-2.049 -9.461,-1.93 -13.71,0.32 -18.741,9.923 -39.053,15.094 -60.373,15.369 -35.023,0.461 -68.48,-13.08 -94.174,-38.104 C 33.007,217.817 18.609,184.745 18.161,149.721 17.702,113.856 31.316,80.058 56.494,54.556 81.68,29.048 115.288,15 151.129,15 c 28.743,0 56.121,9.063 79.175,26.208 3.322,2.472 8.022,1.782 10.494,-1.542 2.472,-3.324 1.781,-8.022 -1.542,-10.494 C 213.594,10.087 183.121,0 151.129,0 111.245,0 73.846,15.633 45.822,44.018 17.803,72.398 2.653,110.005 3.164,149.913 c 0.499,39.033 16.508,75.853 45.077,103.676 28.101,27.368 64.586,42.37 102.936,42.369 0.629,0 1.265,-0.004 1.896,-0.012 z"
             inkscape:connector-curvature="0" />
          <path
             id="path12"
             d="m 197.343,147.912 c 0,14.616 11.891,26.507 26.507,26.507 14.616,0 26.507,-11.891 26.507,-26.507 0,-14.616 -11.891,-26.507 -26.507,-26.507 -14.616,0 -26.507,11.891 -26.507,26.507 z m 38.013,0 c 0,6.345 -5.162,11.507 -11.507,11.507 -6.345,0 -11.507,-5.162 -11.507,-11.507 0,-6.345 5.162,-11.507 11.507,-11.507 6.345,0 11.507,5.162 11.507,11.507 z"
             inkscape:connector-curvature="0" />
          <path
             id="path14"
             d="m 124.623,147.912 c 0,14.616 11.891,26.507 26.507,26.507 14.616,0 26.507,-11.891 26.507,-26.507 0,-14.616 -11.891,-26.507 -26.507,-26.507 -14.616,0 -26.507,11.891 -26.507,26.507 z m 38.014,0 c 0,6.345 -5.162,11.507 -11.507,11.507 -6.345,0 -11.507,-5.162 -11.507,-11.507 0,-6.345 5.162,-11.507 11.507,-11.507 6.345,0 11.507,5.162 11.507,11.507 z"
             inkscape:connector-curvature="0" />
          <path
             id="path16"
             d="m 51.904,147.912 c 0,14.616 11.891,26.507 26.507,26.507 14.616,0 26.507,-11.891 26.507,-26.507 0,-14.616 -11.891,-26.507 -26.507,-26.507 -14.616,0 -26.507,11.891 -26.507,26.507 z m 38.014,0 c 0,6.345 -5.162,11.507 -11.507,11.507 -6.345,0 -11.507,-5.162 -11.507,-11.507 0,-6.345 5.162,-11.507 11.507,-11.507 6.345,0 11.507,5.162 11.507,11.507 z"
             inkscape:connector-curvature="0" />
          <path
             id="path18"
             d="m 502.023,168.008 c -4.111,-0.433 -7.812,2.55 -8.248,6.669 -1.689,15.966 -5.339,33.366 -10.848,51.714 -21.569,71.836 -55.147,132.278 -99.802,179.651 -12.473,13.232 -26.305,25.922 -40.492,37.186 -4.951,3.931 -9.997,7.741 -15.13,11.429 -10.594,7.613 -21.56,14.708 -32.833,21.272 -28.969,16.867 -61.494,24.182 -87.009,19.564 -4.16,-0.753 -8.165,-1.688 -12.034,-2.792 16.735,-12.505 31.49,-25.221 47.681,-39.831 18.437,-16.647 34.577,-32.071 49.342,-47.152 0.02,-0.021 0.037,-0.044 0.057,-0.065 0.022,-0.023 0.046,-0.043 0.068,-0.066 l 8.711,-9.336 c 54.462,-52.234 95.018,-114.959 120.561,-186.482 0,0 4.704,-13.423 4.714,-13.453 13.607,-39.363 26.107,-81.13 37.221,-124.32 9.249,9.618 16.676,21.033 22.138,34.08 3.518,8.403 6.006,17.729 7.398,27.72 0.571,4.103 4.358,6.965 8.463,6.394 4.103,-0.572 6.965,-4.36 6.394,-8.463 -1.57,-11.269 -4.402,-21.848 -8.418,-31.442 -0.993,-2.374 -2.053,-4.719 -3.18,-7.033 -10.074,-20.679 -25.143,-36.013 -43.406,-49.491 -18.036,-13.31 -41.912,-23.535 -63.95,-13.873 -7.194,3.155 -13.337,8.189 -18.234,14.931 -3.047,4.148 -5.581,8.956 -7.524,14.273 -0.44,1.195 -15.217,47.975 -20.767,71.059 -4.325,18.008 -0.751,31.162 11.242,41.396 3.467,2.96 7.598,5.64 12.629,8.191 10.612,5.383 21.69,9.939 32.758,14.399 l 4.553,1.836 c 0.049,0.02 6.1,2.313 6.1,2.313 l -2.271,6.479 c -24.762,69.334 -64.109,130.165 -116.95,180.801 -0.101,0.097 -0.199,0.196 -0.295,0.298 l -3.687,3.952 c 0,0 -7.838,-7.717 -7.839,-7.716 -0.646,-0.693 -16.338,-17.549 -24.774,-24.182 -20.058,-15.77 -37.031,-16.14 -56.753,-1.234 -17.117,12.937 -39.27,30.303 -58.802,49.933 -22.162,22.271 -21.865,45.651 0.883,69.491 7.9,8.279 16.856,15.168 26.784,20.671 -0.01,0.009 -0.019,0.02 -0.028,0.029 3.327,1.849 6.76,3.536 10.292,5.057 0.145,0.063 0.294,0.111 0.441,0.164 8.643,3.686 17.923,6.435 27.812,8.224 6.046,1.094 12.35,1.632 18.833,1.632 24.99,0 52.638,-7.998 78.395,-22.994 11.779,-6.858 23.233,-14.277 34.297,-22.239 5.572,-4.01 11.045,-8.158 16.408,-12.444 36.21,-28.929 67.512,-65.167 91.952,-104.656 5.106,-8.25 9.928,-16.677 14.463,-25.254 15.766,-29.816 28.261,-61.307 37.956,-93.595 5.777,-19.239 9.612,-37.559 11.399,-54.45 0.434,-4.117 -2.551,-7.809 -6.671,-8.245 z m -92.395,13.997 c -9.752,-3.805 -19.231,-7.676 -28.688,-12.074 -5.922,-2.754 -12.062,-5.525 -17.065,-9.794 -7.518,-6.415 -9.371,-14.088 -6.395,-26.48 5.246,-21.814 19.459,-66.972 20.289,-69.463 1.459,-3.975 3.312,-7.506 5.531,-10.527 3.335,-4.592 7.421,-7.97 12.145,-10.042 19.334,-8.476 40.902,5.493 55.731,16.846 0.075,0.058 0.151,0.115 0.226,0.173 -10.817,42.835 -23.014,84.303 -36.313,123.461 -1.788,-0.678 -3.644,-1.391 -5.461,-2.1 z M 173.251,483.401 c -0.002,0.019 -0.006,0.037 -0.008,0.056 -8.368,-4.707 -15.908,-10.583 -22.702,-17.703 -17.183,-18.008 -17.502,-32.076 -1.103,-48.556 18.762,-18.855 39.45,-35.121 57.213,-48.546 14.139,-10.686 23.838,-10.419 38.438,1.06 7.521,5.913 31.494,30.929 31.494,30.929 -13.09,13.146 -27.326,26.648 -43.326,41.094 -18.341,16.55 -34.766,30.596 -54.374,44.63 -1.919,-0.922 -3.787,-1.924 -5.632,-2.964 z"
             inkscape:connector-curvature="0" />
        </g>
      </g>
    </g>
  </g>
</svg>
